<?xml version="1.0" encoding="utf-8"?>

<!DOCTYPE svg PUBLIC "-//W3C//DTD SVG 1.1//EN" "http://www.w3.org/Graphics/SVG/1.1/DTD/svg11.dtd">
<!-- Uploaded to: SVG Repo, www.svgrepo.com, Generator: SVG Repo Mixer Tools -->
<svg height="20px" width="20px" version="1.1" id="_x32_" xmlns="http://www.w3.org/2000/svg" xmlns:xlink="http://www.w3.org/1999/xlink" 
	 viewBox="0 0 512 512"  xml:space="preserve">
<style type="text/css">
	
</style>
<g>
	<path class="st0" d="M474.68,99.477c-37.944-24.523-131.54-58.702-218.692-57.316c-87.16-1.386-180.73,32.785-218.666,57.316
		c-39.161,23.988-47.5,55.064-25.033,79.34c6.86,9.682,13.592,19.423,20.188,29.241c5.806,8.543,16.975,11.858,26.92,8.288
		c19.772-7.14,39.84-13.201,60.122-18.173c10.286-2.516,17.655-11.578,17.613-21.973c-0.076-7.506-0.102-15.029-0.076-22.552
		c0.008-9.528,7.098-18.215,17.459-20.91c-0.263-0.442,58.813-15.862,101.475-14.968c42.662-0.901,101.739,14.526,101.475,14.96
		c10.37,2.703,17.476,11.39,17.476,20.918c0.026,7.523,0.009,15.038-0.068,22.552c-0.05,10.395,7.311,19.448,17.596,21.964
		c20.282,4.981,40.342,11.033,60.114,18.174c9.962,3.587,21.122,0.255,26.928-8.288c6.605-9.809,13.345-19.558,20.205-29.232
		C522.187,154.541,513.824,123.472,474.68,99.477z"/>
	<path class="st0" d="M416.552,240.605c-10.038-3.069-20.162-5.891-30.32-8.381c-22.169-5.424-37.587-24.932-37.478-47.448
		c0.069-6.273,0.085-12.444,0.076-18.607l-11.024-2.898c-17.416-4.029-51.205-10.718-78.15-10.718h-7.31
		c-27.031,0-60.861,6.706-78.253,10.736l-0.016,0.043l-10.923,2.847c-0.009,6.18,0.017,12.325,0.085,18.462
		c0.093,22.661-15.334,42.178-37.52,47.6c-10.124,2.482-20.23,5.296-30.269,8.356l-9.996,29.088L40.572,365.43v52.633
		c0,28.62,23.197,51.817,51.817,51.817H256h163.612c28.62,0,51.817-23.196,51.817-51.817V365.43l-44.881-95.746L416.552,240.605z
		 M337.717,368.099v40.861h-40.852v-40.861H337.717z M337.717,312.185v40.86h-40.852v-40.86H337.717z M296.865,297.123v-40.852
		h40.852v40.852H296.865z M276.431,368.099v40.861H235.57v-40.861H276.431z M276.431,312.185v40.86H235.57v-40.86H276.431z
		 M235.57,297.123v-40.852h40.861v40.852H235.57z M215.14,368.099v40.861h-40.856v-40.861H215.14z M215.14,312.185v40.86h-40.856
		v-40.86H215.14z M174.284,297.123v-40.852h40.856v40.852H174.284z"/>
</g>
</svg>